<svg version="1.1" xmlns="http://www.w3.org/2000/svg" xmlns:xlink="http://www.w3.org/1999/xlink" width="100%"
   height="100%" viewBox="-25 -25 100 100">
   <circle r="15" cy="25" cx="25"
      style="fill:#ffffff;stroke-width:0;paint-order:stroke markers fill;stop-color:#000000" />
   <path id="gear" d="M20.417 0l-.937 5.638c-1.562.417-2.917 1.044-4.27 
      1.775l-4.585-3.237-6.562 6.473 3.332 4.592c-.729 
      1.357-1.352 2.82-1.77 4.385L0 20.461v9.186l5.626.938
      c.417 1.566 1.04 2.923 1.77 4.28l-3.333 4.697 6.459 
      6.472 4.687-3.341c1.354.73 2.812 1.357 4.374 1.775
      L20.522 50h9.167l.936-5.635c1.458-.418 2.917-1.045 
      4.27-1.776l4.688 3.34 6.46-6.47-3.333-4.698c.729-1.357 
      1.353-2.714 1.77-4.28l5.52-.834V20.46l-5.624-.94
      a17.563 17.563 0 00-1.771-4.28l3.334-4.592L39.48 4.07
      l-4.687 3.236c-1.354-.73-2.813-1.355-4.271-1.773L29.583 0z
      M25 10.746a14.225 14.254 0 0114.224 14.255A14.225 14.254 
      0 0125 39.256a14.225 14.254 0 01-14.226-14.255 14.225 
      14.254 0 0114.226-14.255z" fill="#333" />
   <path d="M25 37.144a1.14 1.14 0 01-.65-.2l-11-7.28a.91.91 0 01-.32-.3
      v-.05a1.24 1.24 0 01-.18-.64v-7.37a1.23 1.23 0 01.18-.63v-.06
      a1 1 0 01.32-.29l11-7.28a1.22 1.22 0 011.3 0l11 7.28a1 1 0 
      01.32.29.1.1 0 010 .05 1.23 1.23 0 01.18.63v7.37a1.24 1.24 
      0 01-.18.64v.05a1 1 0 01-.32.3l-11 7.28a1.14 1.14 0 01-.65.21z
      m1.15-7.84v4.55l7.78-5.17-3.43-2.31zm-10.08-.62l7.78 5.17v-4.55
      l-4.35-2.93zm5.49-3.69l3.44 2.31 3.44-2.31-3.44-2.32zm11 0
      l2.29 1.54v-3.08zm-17.41-1.54v3.08l2.29-1.54zm11-2.77l4.35 
      2.92 3.43-2.3-7.78-5.17zm-10.08.62l3.43 2.3 4.35-2.92v-4.55z" />

   <animateTransform xlink:href="#gear" attributeName="transform" type="rotate" from="0 25 25" to="360 25 25" begin="0s"
      dur="10s" repeatCount="indefinite" />
</svg>